<svg width="19" height="25" viewBox="0 0 19 25" fill="none" xmlns="http://www.w3.org/2000/svg">
<path d="M0.567107 16.0635C0.488259 16.0634 0.410267 16.0797 0.338113 16.1115C0.265959 16.1433 0.201225 16.1897 0.148066 16.248C0.0949394 16.3062 0.0545092 16.3749 0.0294136 16.4496C0.00435089 16.5244 -0.00484963 16.6035 0.00240535 16.6821C0.219791 18.9245 1.26431 21.0056 2.93246 22.5199C4.60061 24.0342 6.77282 24.873 9.02576 24.873C11.2787 24.873 13.4509 24.0342 15.1191 22.5199C16.7872 21.0056 17.8317 18.9245 18.0491 16.6821C18.0564 16.6035 18.0472 16.5244 18.0221 16.4496C17.997 16.3749 17.9566 16.3062 17.9034 16.248C17.8503 16.1897 17.7856 16.1433 17.7134 16.1115C17.6413 16.0797 17.5632 16.0634 17.4844 16.0635H0.567107Z" fill="white"/>
<path d="M0.566959 0C2.6562 0 4.65982 0.829937 6.13714 2.30722C7.61442 3.78453 8.44436 5.78816 8.44436 7.87736V14.2622C8.44436 14.4122 8.38476 14.556 8.27871 14.6621C8.17266 14.7681 8.02881 14.8277 7.87883 14.8277H0.566959C0.416978 14.8277 0.273164 14.7681 0.167109 14.6621C0.0610547 14.556 0.00146484 14.4122 0.00146484 14.2622V0.565493C0.00146484 0.415513 0.0610547 0.271699 0.167109 0.165645C0.273164 0.0595899 0.416978 0 0.566959 0Z" fill="white"/>
<path d="M10.2441 6.79981H10.6164C11.5928 6.79981 12.5597 6.99213 13.4618 7.36579C14.3639 7.73946 15.1836 8.28714 15.874 8.97759C16.5645 9.66803 17.1121 10.4877 17.4858 11.3898C17.8595 12.2919 18.0518 13.2588 18.0518 14.2352V14.2626C18.0518 14.4126 17.9922 14.5564 17.8862 14.6625C17.7801 14.7685 17.6363 14.8281 17.4863 14.8281H13.308C12.3452 14.8281 11.4218 14.4456 10.741 13.7648C10.0602 13.084 9.67773 12.1607 9.67773 11.1979V7.362C9.67862 7.21245 9.73868 7.06933 9.84483 6.96397C9.95098 6.8586 10.0945 6.79957 10.2441 6.79981Z" fill="white"/>
</svg>
