<svg width="56" height="47" viewBox="0 0 56 47" fill="none" xmlns="http://www.w3.org/2000/svg">
<path d="M55.8303 4.72284C55.8303 2.16395 53.7367 0.0703125 51.1778 0.0703125H4.65252C2.09364 0.0703125 0 2.16395 0 4.72284V41.943C0 44.5019 2.09364 46.5956 4.65252 46.5956H51.1778C53.7367 46.5956 55.8303 44.5019 55.8303 41.943V4.72284ZM43.7337 37.2905H10.0029C8.60717 37.2905 7.79298 35.7784 8.49086 34.6153L18.7264 16.8194C19.1917 16.0052 20.2385 16.0052 20.7037 16.8194L26.8683 27.4039C27.3336 28.1018 28.3804 28.2181 28.8456 27.5202L33.8471 20.3088C34.3124 19.6109 35.3592 19.6109 35.8244 20.3088L45.0132 34.9642C45.711 36.0111 45.0132 37.2905 43.7337 37.2905ZM40.7096 16.3541C38.1507 16.3541 36.0571 14.2605 36.0571 11.7016C36.0571 9.14273 38.1507 7.0491 40.7096 7.0491C43.2685 7.0491 45.3621 9.14273 45.3621 11.7016C45.3621 14.2605 43.2685 16.3541 40.7096 16.3541Z" fill="white"/>
</svg>
