<svg width="20" height="20" viewBox="0 0 20 20" fill="none" xmlns="http://www.w3.org/2000/svg">
<mask id="mask0_4739_128" style="mask-type:alpha" maskUnits="userSpaceOnUse" x="0" y="0" width="20" height="20">
<rect width="20" height="20" fill="#D9D9D9"/>
</mask>
<g mask="url(#mask0_4739_128)">
<path d="M13.3333 11.25C13.6944 11.25 13.9931 11.1319 14.2292 10.8958C14.4653 10.6597 14.5833 10.3611 14.5833 10C14.5833 9.63889 14.4653 9.34028 14.2292 9.10417C13.9931 8.86806 13.6944 8.75 13.3333 8.75C12.9722 8.75 12.6736 8.86806 12.4375 9.10417C12.2014 9.34028 12.0833 9.63889 12.0833 10C12.0833 10.3611 12.2014 10.6597 12.4375 10.8958C12.6736 11.1319 12.9722 11.25 13.3333 11.25ZM4.16667 17.5C3.70833 17.5 3.31583 17.3369 2.98917 17.0108C2.66306 16.6842 2.5 16.2917 2.5 15.8333V4.16667C2.5 3.70833 2.66306 3.31583 2.98917 2.98917C3.31583 2.66306 3.70833 2.5 4.16667 2.5H15.8333C16.2917 2.5 16.6842 2.66306 17.0108 2.98917C17.3369 3.31583 17.5 3.70833 17.5 4.16667V6.25H15.8333V4.16667H4.16667V15.8333H15.8333V13.75H17.5V15.8333C17.5 16.2917 17.3369 16.6842 17.0108 17.0108C16.6842 17.3369 16.2917 17.5 15.8333 17.5H4.16667ZM10.8333 14.1667C10.375 14.1667 9.98278 14.0036 9.65667 13.6775C9.33 13.3508 9.16667 12.9583 9.16667 12.5V7.5C9.16667 7.04167 9.33 6.64917 9.65667 6.3225C9.98278 5.99639 10.375 5.83333 10.8333 5.83333H16.6667C17.125 5.83333 17.5175 5.99639 17.8442 6.3225C18.1703 6.64917 18.3333 7.04167 18.3333 7.5V12.5C18.3333 12.9583 18.1703 13.3508 17.8442 13.6775C17.5175 14.0036 17.125 14.1667 16.6667 14.1667H10.8333ZM16.6667 12.5V7.5H10.8333V12.5H16.6667Z" fill="#FFC701"/>
</g>
</svg>
